<svg width="906.1999999999999px" height="122px" xmlns="http://www.w3.org/2000/svg" viewBox="-203.09999999999997 14 906.1999999999999 122" style="background: rgba(5, 17, 3, 0);" preserveAspectRatio="xMidYMid"><defs><linearGradient id="editing-glowing-gradient" x1="0.8146601955249186" x2="0.18533980447508142" y1="0.8885729807284856" y2="0.11142701927151444"><stop offset="0" stop-color="#67ff43"></stop><stop offset="1" stop-color="#90ffff"></stop></linearGradient><filter id="editing-glowing" x="-100%" y="-100%" width="300%" height="300%"><feGaussianBlur in="SourceGraphic" result="blur" stdDeviation="10"></feGaussianBlur><feMerge><feMergeNode in="blur"></feMergeNode><feMergeNode in="SourceGraphic"></feMergeNode></feMerge></filter></defs><g filter="url(#editing-glowing)"><g transform="translate(-73.39090156555176, 104.76000022888184)"><path d="M29.18 1.28L29.18 1.28L29.18 1.28Q20.99 1.28 20.22-10.37L20.22-10.37L9.22-10.37L9.22-10.37Q7.94-7.42 7.04-4.86L7.04-4.86L5.38 0L-3.58 0L16.58-42.24L30.34-42.24L33.02-11.14L33.02-11.14Q33.66-4.42 36.22-2.43L36.22-2.43L36.22-2.43Q34.37 1.28 29.18 1.28ZM14.72-23.17L11.20-15.04L20.03-15.04L19.26-31.49L19.26-33.22L14.72-23.17ZM55.42 12.80L58.11-0.19L58.11-0.19Q56 1.28 52.64 1.28L52.64 1.28L52.64 1.28Q49.28 1.28 46.82 0.51L46.82 0.51L46.82 0.51Q44.35-0.26 42.82-1.92L42.82-1.92L42.82-1.92Q39.87-5.12 39.87-12.61L39.87-12.61L39.87-12.61Q39.87-22.08 45.50-28.03L45.50-28.03L45.50-28.03Q51.01-33.92 60.10-33.92L60.10-33.92L60.10-33.92Q63.36-33.92 65.73-32.83L65.73-32.83L77.06-33.92L68.35 11.52L55.42 12.80ZM54.34-2.69L54.34-2.69L54.34-2.69Q56.32-2.69 57.79-4.70L57.79-4.70L57.79-4.70Q59.26-6.72 59.90-10.18L59.90-10.18L63.30-28.93L63.30-28.93Q61.95-30.08 60.38-30.08L60.38-30.08L60.38-30.08Q58.82-30.08 57.89-29.57L57.89-29.57L57.89-29.57Q56.96-29.06 56.26-27.90L56.26-27.90L56.26-27.90Q54.40-24.90 52.93-16.19L52.93-16.19L52.93-16.19Q52.10-11.01 52.10-6.85L52.10-6.85L52.10-6.85Q52.10-2.69 54.34-2.69ZM99.97-2.69L99.97-2.69L99.97-2.69Q96.90 1.28 89.28 1.28L89.28 1.28L89.28 1.28Q85.31 1.28 82.43-1.12L82.43-1.12L82.43-1.12Q79.55-3.52 79.55-6.98L79.55-6.98L79.55-6.98Q79.55-8.90 79.74-9.86L79.74-9.86L84.03-32.64L97.02-33.92L92.35-9.22L92.35-9.22Q92.10-7.81 92.10-6.98L92.10-6.98L92.10-6.98Q92.10-3.26 94.34-3.26L94.34-3.26L94.34-3.26Q96.83-3.26 98.62-6.66L98.62-6.66L98.62-6.66Q99.20-7.74 99.46-9.15L99.46-9.15L104-32.64L116.61-33.92L111.87-8.96L111.87-8.96Q111.68-8 111.68-6.98L111.68-6.98L111.68-6.98Q111.68-5.95 112.26-4.83L112.26-4.83L112.26-4.83Q112.83-3.71 114.69-3.46L114.69-3.46L114.69-3.46Q114.30-1.92 112.96-0.90L112.96-0.90L112.96-0.90Q110.14 1.28 107.10 1.28L107.10 1.28L107.10 1.28Q104.06 1.28 102.27 0.19L102.27 0.19L102.27 0.19Q100.48-0.90 99.97-2.69ZM122.59-1.92L122.59-1.92L122.59-1.92Q121.09-3.58 120.42-6.21L120.42-6.21L120.42-6.21Q119.74-8.83 119.74-13.12L119.74-13.12L119.74-13.12Q119.74-17.41 121.22-21.31L121.22-21.31L121.22-21.31Q122.69-25.22 125.38-28.03L125.38-28.03L125.38-28.03Q130.88-33.92 139.97-33.92L139.97-33.92L139.97-33.92Q143.23-33.92 145.60-32.83L145.60-32.83L156.54-33.92L151.81-8.96L151.81-8.96Q151.62-8.19 151.62-6.78L151.62-6.78L151.62-6.78Q151.62-5.38 152.48-4.48L152.48-4.48L152.48-4.48Q153.34-3.58 154.62-3.46L154.62-3.46L154.62-3.46Q153.98-1.28 151.65 0L151.65 0L151.65 0Q149.31 1.28 146.69 1.28L146.69 1.28L146.69 1.28Q144.06 1.28 142.30 0.29L142.30 0.29L142.30 0.29Q140.54-0.70 140.03-2.37L140.03-2.37L140.03-2.37Q139.01-0.77 136.83 0.26L136.83 0.26L136.83 0.26Q134.66 1.28 131.74 1.28L131.74 1.28L131.74 1.28Q128.83 1.28 126.46 0.51L126.46 0.51L126.46 0.51Q124.10-0.26 122.59-1.92ZM136.10-27.90L136.10-27.90L136.10-27.90Q135.36-26.75 134.72-24.80L134.72-24.80L134.72-24.80Q134.08-22.85 133.02-17.63L133.02-17.63L133.02-17.63Q131.97-12.42 131.97-8.70L131.97-8.70L131.97-8.70Q131.97-4.99 132.54-3.90L132.54-3.90L132.54-3.90Q133.12-2.82 134.14-2.82L134.14-2.82L134.14-2.82Q136.19-2.82 137.70-4.77L137.70-4.77L137.70-4.77Q139.20-6.72 139.78-10.18L139.78-10.18L143.17-28.93L143.17-28.93Q141.82-30.08 140.26-30.08L140.26-30.08L140.26-30.08Q138.69-30.08 137.76-29.57L137.76-29.57L137.76-29.57Q136.83-29.06 136.10-27.90ZM199.10-20.61L212.03-21.76L212.03-21.76Q207.42-11.65 207.42 0.06L207.42 0.06L207.42 0.06Q205.70 1.28 203.17 1.28L203.17 1.28L203.17 1.28Q200.64 1.28 199.04 0.10L199.04 0.10L199.04 0.10Q197.44-1.09 197.12-2.30L197.12-2.30L197.12-2.30Q195.52-0.64 192.93 0.32L192.93 0.32L192.93 0.32Q190.34 1.28 187.58 1.28L187.58 1.28L187.58 1.28Q184.83 1.28 182.43 0.38L182.43 0.38L182.43 0.38Q180.03-0.51 178.18-2.50L178.18-2.50L178.18-2.50Q174.08-6.85 174.08-15.10L174.08-15.10L174.08-15.10Q174.08-27.90 180.93-35.58L180.93-35.58L180.93-35.58Q187.97-43.52 200.45-43.52L200.45-43.52L200.45-43.52Q209.09-43.52 212.16-39.04L212.16-39.04L212.16-39.04Q213.12-37.63 213.12-35.94L213.12-35.94L213.12-35.94Q213.12-34.24 212.38-32.80L212.38-32.80L212.38-32.80Q211.65-31.36 210.50-30.21L210.50-30.21L210.50-30.21Q207.74-27.65 204.35-27.65L204.35-27.65L204.35-27.65Q203.01-27.65 201.73-28.10L201.73-28.10L201.73-28.10Q201.98-30.02 201.98-32.26L201.98-32.26L201.98-32.26Q201.98-34.50 201.82-35.52L201.82-35.52L201.82-35.52Q201.66-36.54 201.28-37.38L201.28-37.38L201.28-37.38Q200.45-39.10 198.62-39.10L198.62-39.10L198.62-39.10Q196.80-39.10 194.78-37.15L194.78-37.15L194.78-37.15Q192.77-35.20 191.17-32L191.17-32L191.17-32Q187.65-24.83 187.65-16.19L187.65-16.19L187.65-16.19Q187.65-12.22 189.18-9.41L189.18-9.41L189.18-9.41Q190.85-6.34 193.79-6.34L193.79-6.34L193.79-6.34Q194.82-6.34 195.74-6.85L195.74-6.85L195.74-6.85Q196.67-7.36 197.06-7.74L197.06-7.74L199.10-20.61ZM235.20-17.98L235.20-17.98L235.20-17.98Q237.50-22.08 237.50-26.24L237.50-26.24L237.50-26.24Q237.50-28.99 235.52-28.99L235.52-28.99L235.52-28.99Q233.98-28.99 232.38-26.37L232.38-26.37L232.38-26.37Q230.72-23.74 230.21-20.35L230.21-20.35L226.88 0L213.63 1.28L220.16-32.64L230.72-33.92L229.57-27.46L229.57-27.46Q232.70-33.92 239.74-33.92L239.74-33.92L239.74-33.92Q243.46-33.92 245.47-32L245.47-32L245.47-32Q247.49-30.08 247.49-26.14L247.49-26.14L247.49-26.14Q247.49-22.21 244.90-19.71L244.90-19.71L244.90-19.71Q242.30-17.22 237.89-17.22L237.89-17.22L237.89-17.22Q235.97-17.22 235.20-17.98ZM274.43-10.82L274.43-10.82L274.43-10.82Q276.03-9.73 276.03-7.33L276.03-7.33L276.03-7.33Q276.03-4.93 274.82-3.39L274.82-3.39L274.82-3.39Q273.60-1.86 271.62-0.83L271.62-0.83L271.62-0.83Q267.52 1.28 263.10 1.28L263.10 1.28L263.10 1.28Q258.69 1.28 256.10 0.32L256.10 0.32L256.10 0.32Q253.50-0.64 251.78-2.43L251.78-2.43L251.78-2.43Q248.38-5.82 248.38-12.03L248.38-12.03L248.38-12.03Q248.38-21.70 253.63-27.58L253.63-27.58L253.63-27.58Q259.26-33.92 269.06-33.92L269.06-33.92L269.06-33.92Q275.14-33.92 278.14-31.36L278.14-31.36L278.14-31.36Q280.38-29.44 280.38-26.30L280.38-26.30L280.38-26.30Q280.38-15.04 260.93-15.04L260.93-15.04L260.93-15.04Q260.67-13.38 260.67-11.97L260.67-11.97L260.67-11.97Q260.67-9.02 261.98-7.90L261.98-7.90L261.98-7.90Q263.30-6.78 265.73-6.78L265.73-6.78L265.73-6.78Q268.16-6.78 270.75-7.90L270.75-7.90L270.75-7.90Q273.34-9.02 274.43-10.82ZM261.38-17.79L261.38-17.79L261.38-17.79Q265.92-17.79 268.54-20.61L268.54-20.61L268.54-20.61Q271.17-23.30 271.17-27.58L271.17-27.58L271.17-27.58Q271.17-29.06 270.62-29.86L270.62-29.86L270.62-29.86Q270.08-30.66 268.99-30.66L268.99-30.66L268.99-30.66Q267.90-30.66 266.98-30.24L266.98-30.24L266.98-30.24Q266.05-29.82 265.09-28.42L265.09-28.42L265.09-28.42Q262.72-25.22 261.38-17.79ZM308.48-10.82L308.48-10.82L308.48-10.82Q310.08-9.73 310.08-7.33L310.08-7.33L310.08-7.33Q310.08-4.93 308.86-3.39L308.86-3.39L308.86-3.39Q307.65-1.86 305.66-0.83L305.66-0.83L305.66-0.83Q301.57 1.28 297.15 1.28L297.15 1.28L297.15 1.28Q292.74 1.28 290.14 0.32L290.14 0.32L290.14 0.32Q287.55-0.64 285.82-2.43L285.82-2.43L285.82-2.43Q282.43-5.82 282.43-12.03L282.43-12.03L282.43-12.03Q282.43-21.70 287.68-27.58L287.68-27.58L287.68-27.58Q293.31-33.92 303.10-33.92L303.10-33.92L303.10-33.92Q309.18-33.92 312.19-31.36L312.19-31.36L312.19-31.36Q314.43-29.44 314.43-26.30L314.43-26.30L314.43-26.30Q314.43-15.04 294.98-15.04L294.98-15.04L294.98-15.04Q294.72-13.38 294.72-11.97L294.72-11.97L294.72-11.97Q294.72-9.02 296.03-7.90L296.03-7.90L296.03-7.90Q297.34-6.78 299.78-6.78L299.78-6.78L299.78-6.78Q302.21-6.78 304.80-7.90L304.80-7.90L304.80-7.90Q307.39-9.02 308.48-10.82ZM295.42-17.79L295.42-17.79L295.42-17.79Q299.97-17.79 302.59-20.61L302.59-20.61L302.59-20.61Q305.22-23.30 305.22-27.58L305.22-27.58L305.22-27.58Q305.22-29.06 304.67-29.86L304.67-29.86L304.67-29.86Q304.13-30.66 303.04-30.66L303.04-30.66L303.04-30.66Q301.95-30.66 301.02-30.24L301.02-30.24L301.02-30.24Q300.10-29.82 299.14-28.42L299.14-28.42L299.14-28.42Q296.77-25.22 295.42-17.79ZM343.68 1.28L343.68 1.28L343.68 1.28Q335.94 1.28 335.94-4.74L335.94-4.74L335.94-4.74Q336-6.40 336.51-9.22L336.51-9.22L337.66-15.10L337.66-15.10Q339.39-23.42 339.39-25.28L339.39-25.28L339.39-25.28Q339.39-28.99 337.22-28.99L337.22-28.99L337.22-28.99Q333.57-28.99 331.65-19.46L331.65-19.46L327.87 0L315.01 1.28L321.66-32.70L332.16-33.92L331.14-27.65L331.14-27.65Q334.14-33.92 343.36-33.92L343.36-33.92L343.36-33.92Q347.84-33.92 349.73-32.03L349.73-32.03L349.73-32.03Q351.62-30.14 351.62-25.92L351.62-25.92L351.62-25.92Q351.62-21.95 349.57-12.67L349.57-12.67L349.57-12.67Q348.61-8.51 348.61-6.94L348.61-6.94L348.61-6.94Q348.61-5.38 349.47-4.48L349.47-4.48L349.47-4.48Q350.34-3.58 351.62-3.46L351.62-3.46L351.62-3.46Q350.98-1.28 348.77 0L348.77 0L348.77 0Q346.56 1.28 343.68 1.28ZM399.04-33.92L399.04-33.92L399.04-33.92Q393.86-33.92 390.08-35.65L390.08-35.65L388.03-25.28L400.38-25.28L400.38-25.28Q400.38-21.89 398.69-19.74L398.69-19.74L398.69-19.74Q396.99-17.60 393.92-17.60L393.92-17.60L393.92-17.60Q390.59-17.60 387.52-18.82L387.52-18.82L387.52-18.82Q386.88-19.07 386.82-19.14L386.82-19.14L383.17 0L369.22 0L377.34-42.24L405.89-42.24L405.89-42.24Q405.89-38.34 404.06-36.13L404.06-36.13L404.06-36.13Q402.24-33.92 399.04-33.92ZM406.62-1.92L406.62-1.92L406.62-1.92Q405.12-3.58 404.45-6.21L404.45-6.21L404.45-6.21Q403.78-8.83 403.78-13.12L403.78-13.12L403.78-13.12Q403.78-17.41 405.25-21.31L405.25-21.31L405.25-21.31Q406.72-25.22 409.41-28.03L409.41-28.03L409.41-28.03Q414.91-33.92 424-33.92L424-33.92L424-33.92Q427.26-33.92 429.63-32.83L429.63-32.83L440.58-33.92L435.84-8.96L435.84-8.96Q435.65-8.19 435.65-6.78L435.65-6.78L435.65-6.78Q435.65-5.38 436.51-4.48L436.51-4.48L436.51-4.48Q437.38-3.58 438.66-3.46L438.66-3.46L438.66-3.46Q438.02-1.28 435.68 0L435.68 0L435.68 0Q433.34 1.28 430.72 1.28L430.72 1.28L430.72 1.28Q428.10 1.28 426.34 0.29L426.34 0.29L426.34 0.29Q424.58-0.70 424.06-2.37L424.06-2.37L424.06-2.37Q423.04-0.77 420.86 0.26L420.86 0.26L420.86 0.26Q418.69 1.28 415.78 1.28L415.78 1.28L415.78 1.28Q412.86 1.28 410.50 0.51L410.50 0.51L410.50 0.51Q408.13-0.26 406.62-1.92ZM420.13-27.90L420.13-27.90L420.13-27.90Q419.39-26.75 418.75-24.80L418.75-24.80L418.75-24.80Q418.11-22.85 417.06-17.63L417.06-17.63L417.06-17.63Q416-12.42 416-8.70L416-8.70L416-8.70Q416-4.99 416.58-3.90L416.58-3.90L416.58-3.90Q417.15-2.82 418.18-2.82L418.18-2.82L418.18-2.82Q420.22-2.82 421.73-4.77L421.73-4.77L421.73-4.77Q423.23-6.72 423.81-10.18L423.81-10.18L427.20-28.93L427.20-28.93Q425.86-30.08 424.29-30.08L424.29-30.08L424.29-30.08Q422.72-30.08 421.79-29.57L421.79-29.57L421.79-29.57Q420.86-29.06 420.13-27.90ZM475.20-26.62L475.20-26.62L475.20-26.62Q475.20-23.94 472.96-22.27L472.96-22.27L472.96-22.27Q470.72-20.61 467.07-20.61L467.07-20.61L467.07-20.61Q465.54-20.61 464.64-21.06L464.64-21.06L464.64-21.06Q465.34-22.72 465.57-24.80L465.57-24.80L465.57-24.80Q465.79-26.88 465.79-27.46L465.79-27.46L465.79-27.46Q465.79-30.14 463.94-30.14L463.94-30.14L463.94-30.14Q462.66-30.14 461.22-28.54L461.22-28.54L461.22-28.54Q459.78-26.94 458.56-24.45L458.56-24.45L458.56-24.45Q455.87-18.69 455.87-12.86L455.87-12.86L455.87-12.86Q455.87-9.66 457.09-8.22L457.09-8.22L457.09-8.22Q458.30-6.78 460.99-6.78L460.99-6.78L460.99-6.78Q464.70-6.78 467.65-9.86L467.65-9.86L467.65-9.86Q468.48-10.82 468.93-11.90L468.93-11.90L468.93-11.90Q471.36-10.62 471.36-7.10L471.36-7.10L471.36-7.10Q471.36-3.52 467.39-1.15L467.39-1.15L467.39-1.15Q463.30 1.28 456.77 1.28L456.77 1.28L456.77 1.28Q443.78 1.28 443.78-12.48L443.78-12.48L443.78-12.48Q443.78-22.53 449.47-28.29L449.47-28.29L449.47-28.29Q454.98-33.92 465.09-33.92L465.09-33.92L465.09-33.92Q475.20-33.92 475.20-26.62ZM492.29-3.52L492.29-3.52L492.29-3.52Q490.30 1.28 483.97 1.28L483.97 1.28L483.97 1.28Q480.70 1.28 478.66-0.96L478.66-0.96L478.66-0.96Q476.93-2.94 476.93-4.93L476.93-4.93L476.93-4.93Q476.93-10.11 479.30-20.22L479.30-20.22L481.66-32.64L494.66-33.92L490.75-13.70L490.75-13.70Q489.66-8.96 489.66-7.30L489.66-7.30L489.66-7.30Q489.66-3.65 492.29-3.52ZM482.82-41.54L482.82-41.54L482.82-41.54Q482.82-44.03 484.90-45.38L484.90-45.38L484.90-45.38Q486.98-46.72 489.98-46.72L489.98-46.72L489.98-46.72Q492.99-46.72 494.82-45.38L494.82-45.38L494.82-45.38Q496.64-44.03 496.64-41.54L496.64-41.54L496.64-41.54Q496.64-39.04 494.62-37.76L494.62-37.76L494.62-37.76Q492.61-36.48 489.60-36.48L489.60-36.48L489.60-36.48Q486.59-36.48 484.70-37.76L484.70-37.76L484.70-37.76Q482.82-39.04 482.82-41.54ZM513.02-3.52L513.02-3.52L513.02-3.52Q511.04 1.28 504.70 1.28L504.70 1.28L504.70 1.28Q501.50 1.28 499.46-0.96L499.46-0.96L499.46-0.96Q497.79-2.82 497.79-4.93L497.79-4.93L497.79-4.93Q497.79-9.73 500.03-20.22L500.03-20.22L504.70-44.80L517.70-46.08L511.49-13.70L511.49-13.70Q510.40-8.96 510.40-7.30L510.40-7.30L510.40-7.30Q510.40-3.65 513.02-3.52ZM533.82-3.52L533.82-3.52L533.82-3.52Q531.84 1.28 525.50 1.28L525.50 1.28L525.50 1.28Q522.24 1.28 520.19-0.96L520.19-0.96L520.19-0.96Q518.46-2.94 518.46-4.93L518.46-4.93L518.46-4.93Q518.46-10.11 520.83-20.22L520.83-20.22L523.20-32.64L536.19-33.92L532.29-13.70L532.29-13.70Q531.20-8.96 531.20-7.30L531.20-7.30L531.20-7.30Q531.20-3.65 533.82-3.52ZM524.35-41.54L524.35-41.54L524.35-41.54Q524.35-44.03 526.43-45.38L526.43-45.38L526.43-45.38Q528.51-46.72 531.52-46.72L531.52-46.72L531.52-46.72Q534.53-46.72 536.35-45.38L536.35-45.38L536.35-45.38Q538.18-44.03 538.18-41.54L538.18-41.54L538.18-41.54Q538.18-39.04 536.16-37.76L536.16-37.76L536.16-37.76Q534.14-36.48 531.14-36.48L531.14-36.48L531.14-36.48Q528.13-36.48 526.24-37.76L526.24-37.76L526.24-37.76Q524.35-39.04 524.35-41.54ZM540.29-6.40L540.29-6.40L540.29-6.40Q540.29-8.13 541.18-12.48L541.18-12.48L544.58-29.76L540.80-29.76L541.06-31.68L541.06-31.68Q548.74-33.98 556.16-39.62L556.16-39.62L559.23-39.62L557.70-32.64L562.69-32.64L562.11-29.76L557.18-29.76L553.92-12.48L553.92-12.48Q553.09-8.51 553.09-7.17L553.09-7.17L553.09-7.17Q553.09-4.10 555.78-3.46L555.78-3.46L555.78-3.46Q555.14-1.28 552.83 0L552.83 0L552.83 0Q550.53 1.28 547.26 1.28L547.26 1.28L547.26 1.28Q544 1.28 542.14-0.77L542.14-0.77L542.14-0.77Q540.29-2.82 540.29-6.40ZM577.73-3.52L577.73-3.52L577.73-3.52Q575.74 1.28 569.41 1.28L569.41 1.28L569.41 1.28Q566.14 1.28 564.10-0.96L564.10-0.96L564.10-0.96Q562.37-2.94 562.37-4.93L562.37-4.93L562.37-4.93Q562.37-10.11 564.74-20.22L564.74-20.22L567.10-32.64L580.10-33.92L576.19-13.70L576.19-13.70Q575.10-8.96 575.10-7.30L575.10-7.30L575.10-7.30Q575.10-3.65 577.73-3.52ZM568.26-41.54L568.26-41.54L568.26-41.54Q568.26-44.03 570.34-45.38L570.34-45.38L570.34-45.38Q572.42-46.72 575.42-46.72L575.42-46.72L575.42-46.72Q578.43-46.72 580.26-45.38L580.26-45.38L580.26-45.38Q582.08-44.03 582.08-41.54L582.08-41.54L582.08-41.54Q582.08-39.04 580.06-37.76L580.06-37.76L580.06-37.76Q578.05-36.48 575.04-36.48L575.04-36.48L575.04-36.48Q572.03-36.48 570.14-37.76L570.14-37.76L570.14-37.76Q568.26-39.04 568.26-41.54ZM609.09-10.82L609.09-10.82L609.09-10.82Q610.69-9.73 610.69-7.33L610.69-7.33L610.69-7.33Q610.69-4.93 609.47-3.39L609.47-3.39L609.47-3.39Q608.26-1.86 606.27-0.83L606.27-0.83L606.27-0.83Q602.18 1.28 597.76 1.28L597.76 1.28L597.76 1.28Q593.34 1.28 590.75 0.32L590.75 0.32L590.75 0.32Q588.16-0.64 586.43-2.43L586.43-2.43L586.43-2.43Q583.04-5.82 583.04-12.03L583.04-12.03L583.04-12.03Q583.04-21.70 588.29-27.58L588.29-27.58L588.29-27.58Q593.92-33.92 603.71-33.92L603.71-33.92L603.71-33.92Q609.79-33.92 612.80-31.36L612.80-31.36L612.80-31.36Q615.04-29.44 615.04-26.30L615.04-26.30L615.04-26.30Q615.04-15.04 595.58-15.04L595.58-15.04L595.58-15.04Q595.33-13.38 595.33-11.97L595.33-11.97L595.33-11.97Q595.33-9.02 596.64-7.90L596.64-7.90L596.64-7.90Q597.95-6.78 600.38-6.78L600.38-6.78L600.38-6.78Q602.82-6.78 605.41-7.90L605.41-7.90L605.41-7.90Q608-9.02 609.09-10.82ZM596.03-17.79L596.03-17.79L596.03-17.79Q600.58-17.79 603.20-20.61L603.20-20.61L603.20-20.61Q605.82-23.30 605.82-27.58L605.82-27.58L605.82-27.58Q605.82-29.06 605.28-29.86L605.28-29.86L605.28-29.86Q604.74-30.66 603.65-30.66L603.65-30.66L603.65-30.66Q602.56-30.66 601.63-30.24L601.63-30.24L601.63-30.24Q600.70-29.82 599.74-28.42L599.74-28.42L599.74-28.42Q597.38-25.22 596.03-17.79ZM636.35-22.46L636.35-22.46L636.35-22.46Q637.25-24.83 637.25-26.88L637.25-26.88L637.25-26.88Q637.25-30.66 634.18-30.66L634.18-30.66L634.18-30.66Q632.58-30.66 631.26-29.22L631.26-29.22L631.26-29.22Q629.95-27.78 629.95-25.98L629.95-25.98L629.95-25.98Q629.95-24.70 630.98-23.68L630.98-23.68L630.98-23.68Q632.45-22.27 636.22-19.97L636.22-19.97L636.22-19.97Q640-17.66 641.44-15.78L641.44-15.78L641.44-15.78Q642.88-13.89 642.88-11.30L642.88-11.30L642.88-11.30Q642.88-8.70 641.63-6.34L641.63-6.34L641.63-6.34Q640.38-3.97 638.14-2.30L638.14-2.30L638.14-2.30Q633.34 1.28 625.66 1.28L625.66 1.28L625.66 1.28Q621.50 1.28 618.30-0.90L618.30-0.90L618.30-0.90Q615.10-3.01 615.10-5.50L615.10-5.50L615.10-5.50Q615.10-8 616.93-9.47L616.93-9.47L616.93-9.47Q618.75-10.94 621.44-10.94L621.44-10.94L621.44-10.94Q624.13-10.94 625.79-9.92L625.79-9.92L625.79-9.92Q624.96-7.81 624.96-6.40L624.96-6.40L624.96-6.40Q624.96-2.18 628.54-2.18L628.54-2.18L628.54-2.18Q630.08-2.18 631.10-3.14L631.10-3.14L631.10-3.14Q632.13-4.10 632.13-5.76L632.13-5.76L632.13-5.76Q632.13-9.02 626.62-12.48L626.62-12.48L626.62-12.48Q622.14-15.42 621.12-16.58L621.12-16.58L621.12-16.58Q619.39-18.62 619.39-21.18L619.39-21.18L619.39-21.18Q619.39-23.74 620.61-26.18L620.61-26.18L620.61-26.18Q621.82-28.61 624.06-30.34L624.06-30.34L624.06-30.34Q628.74-33.92 636.86-33.92L636.86-33.92L636.86-33.92Q641.02-33.92 643.49-32.26L643.49-32.26L643.49-32.26Q645.95-30.59 645.95-27.78L645.95-27.78L645.95-27.78Q645.95-24.96 644.26-23.36L644.26-23.36L644.26-23.36Q642.56-21.76 639.49-21.76L639.49-21.76L639.49-21.76Q637.38-21.76 636.35-22.46Z" fill="url(#editing-glowing-gradient)"></path></g></g><style>text {
  font-size: 64px;
  font-family: Arial Black;
  dominant-baseline: central;
  text-anchor: middle;
}</style></svg>